# xmcd CD database file
#
# Track frame offsets:
#	150
#	15751
#	31152
#	51038
#	68204
#	81842
#	100613
#	116822
#	135228
#	155653
#
# Disc length: 2398 seconds
#
# Revision: 0
# Processed by: cddbd v1.5.2PL0 Copyright (c) Steve Scherf et al.
# Submitted via: CDex 1.70beta2
#
DISCID=6f095c0a
DTITLE=Willie Dixon - Peace?
DYEAR=1900
DGENRE=Blues
TTITLE0=I'm Wanted All Over The World
TTITLE1=Peace?
TTITLE2=It's in The News
TTITLE3=I'd Give My Life For You
TTITLE4=You Got to Move
TTITLE5=Suffering Sun of a Gun
TTITLE6=Jelly Jam
TTITLE7=You Don't Make Sense or Peace
TTITLE8=Blues You Can't Lose
TTITLE9=If I Could See
EXTD=
EXTT0=
EXTT1=
EXTT2=
EXTT3=
EXTT4=
EXTT5=
EXTT6=
EXTT7=
EXTT8=
EXTT9=
PLAYORDER=
